<svg width="42" height="54" viewBox="0 0 42 54" fill="none" xmlns="http://www.w3.org/2000/svg">
<rect width="42" height="54" fill="#FEEE69"/>
<path d="M20.7991 23.9474L24.5455 27.6063V27.4211C24.5455 26.4998 24.1719 25.6162 23.507 24.9648C22.8421 24.3133 21.9403 23.9474 21 23.9474H20.7991ZM15.7173 24.8737L17.5491 26.6684C17.49 26.9116 17.4545 27.1547 17.4545 27.4211C17.4545 28.3423 17.8281 29.2259 18.493 29.8773C19.1579 30.5288 20.0597 30.8947 21 30.8947C21.26 30.8947 21.52 30.86 21.7682 30.8021L23.6 32.5968C22.8082 32.9789 21.9336 33.2105 21 33.2105C19.4328 33.2105 17.9298 32.6006 16.8216 31.5148C15.7135 30.4291 15.0909 28.9565 15.0909 27.4211C15.0909 26.5063 15.3273 25.6495 15.7173 24.8737ZM9.18182 18.4705L11.8764 21.1105L12.4082 21.6316C10.4582 23.1368 8.92182 25.1053 8 27.4211C10.0445 32.5042 15.0909 36.1053 21 36.1053C22.8318 36.1053 24.5809 35.7579 26.1764 35.1326L26.6845 35.6189L30.1355 39L31.6364 37.5295L10.6827 17M21 21.6316C22.5672 21.6316 24.0702 22.2415 25.1784 23.3273C26.2865 24.413 26.9091 25.8856 26.9091 27.4211C26.9091 28.1621 26.7555 28.88 26.4836 29.5284L29.9464 32.9211C31.7191 31.4737 33.1373 29.5747 34 27.4211C31.9555 22.3379 26.9091 18.7368 21 18.7368C19.3455 18.7368 17.7618 19.0263 16.2727 19.5474L18.8373 22.0368C19.5109 21.7821 20.2318 21.6316 21 21.6316Z" fill="black"/>
</svg>
