<svg width="210" height="30" viewBox="0 0 210 30" fill="none" xmlns="http://www.w3.org/2000/svg">
<path d="M8.45895 22.5994C5.67448 22.3424 3.56854 21.4636 2.14112 19.9629C0.713708 18.4622 0 16.4836 0 14.027C0 11.5704 0.708682 9.59686 2.12605 8.10646C3.55346 6.60578 5.66443 5.72181 8.45895 5.45457V2.87976H12.4246V5.45457C15.2392 5.72181 17.3501 6.60578 18.7575 8.10646C20.1748 9.60714 20.8835 11.5806 20.8835 14.027C20.8835 16.4836 20.1748 18.4622 18.7575 19.9629C17.3401 21.4533 15.2291 22.3321 12.4246 22.5994V25.1896H8.45895V22.5994ZM8.45895 8.96987C5.775 9.64826 4.43303 11.334 4.43303 14.027C4.43303 16.72 5.775 18.4057 8.45895 19.0841V8.96987ZM12.4246 19.0841C15.1185 18.4057 16.4655 16.72 16.4655 14.027C16.4655 11.334 15.1185 9.64826 12.4246 8.96987V19.0841Z" fill="black"/>
<path d="M28.3774 22.9386V24.5575H23.8841V8.98528H28.3774V14.9212C28.3774 15.9696 28.3372 17.1363 28.2568 18.4211C29.0208 17.0849 29.6892 16.0107 30.2622 15.1987L33.2477 10.9742V8.98528H37.7411V24.5575H33.2477V19.007C33.2477 17.7324 33.293 16.427 33.3834 15.0908C32.8406 16.4065 32.2124 17.5628 31.4986 18.5599L28.3774 22.9386Z" fill="black"/>
<path d="M39.2188 24.5575L44.3002 8.98528H49.2911L53.9051 24.5575H49.2609L46.2302 13.1481L42.5963 24.5575H39.2188Z" fill="black"/>
<path d="M55.5184 24.5575V8.98528H60.0118V14.5049H63.51C65.3596 14.5049 66.7216 14.9829 67.5962 15.9388C68.4707 16.8844 68.908 18.0819 68.908 19.5312C68.908 21.2477 68.4205 22.5171 67.4454 23.3394C66.4804 24.1514 65.1686 24.5575 63.51 24.5575H55.5184ZM60.0118 21.4584H62.6957C63.4396 21.4584 63.9673 21.3145 64.279 21.0267C64.6006 20.7287 64.7615 20.2044 64.7615 19.4541C64.7615 18.1179 64.0729 17.4498 62.6957 17.4498H60.0118V21.4584Z" fill="black"/>
<path d="M72.3157 24.5575V12.331H68.1089V8.98528H80.8802V12.331H76.794V24.5575H72.3157Z" fill="black"/>
<path d="M82.4182 29.815V8.98528H86.5497V11.2671C87.3136 9.53005 88.6506 8.66151 90.5605 8.66151C92.2091 8.66151 93.5561 9.3399 94.6015 10.6967C95.657 12.0432 96.1847 14.0064 96.1847 16.5864C96.1847 19.3308 95.6519 21.4019 94.5864 22.7998C93.5309 24.1874 92.1538 24.8812 90.4549 24.8812C88.736 24.8812 87.5097 24.1977 86.7758 22.8306V29.815H82.4182ZM86.7758 17.7427C86.7758 18.8425 86.8412 19.6031 86.9719 20.0246C87.1025 20.446 87.379 20.8263 87.8012 21.1655C88.2234 21.4944 88.6807 21.6589 89.1733 21.6589C89.7865 21.6589 90.3343 21.3402 90.8168 20.703C91.2993 20.0554 91.5406 18.6369 91.5406 16.4476C91.5406 13.3743 90.7465 11.8376 89.1582 11.8376C88.5551 11.8376 88.0072 12.11 87.5147 12.6548C87.0221 13.1995 86.7758 14.1246 86.7758 15.43V17.7427Z" fill="black"/>
<path d="M110.645 8.98528L105.88 23.9253C105.347 25.5905 104.89 26.7931 104.508 27.5331C104.136 28.2835 103.593 28.8796 102.88 29.3216C102.176 29.7739 101.191 30 99.9241 30C99.2909 30 98.5721 29.9383 97.7679 29.815V26.2843C98.5621 26.4282 99.2959 26.5001 99.9694 26.5001C100.854 26.5001 101.447 26.3305 101.749 25.9913C102.05 25.6521 102.276 25.1742 102.427 24.5575L96.8934 8.98528H101.643L104.568 18.2515L107.373 8.98528H110.645Z" fill="black"/>
<path d="M112.605 24.5575V8.98528H119.104L122.421 21.4276L125.859 8.98528H131.951V24.5575H127.849V12.1306H127.638L124.185 24.5575H119.722L116.299 12.1306H116.088V24.5575H112.605Z" fill="black"/>
<path d="M140.995 14.0251C139.221 14.0251 137.713 13.3837 136.471 12.101C135.235 10.8182 134.616 9.28871 134.616 7.51256C134.616 5.73641 135.238 4.20694 136.48 2.92416C137.723 1.64139 139.227 1 140.995 1C142.78 1 144.285 1.64756 145.509 2.94267C146.739 4.23778 147.355 5.76108 147.355 7.51256C147.355 9.25171 146.742 10.7719 145.518 12.0732C144.294 13.3745 142.786 14.0251 140.995 14.0251ZM146.169 7.51256C146.169 6.03243 145.666 4.76199 144.659 3.70123C143.657 2.64047 142.445 2.1101 141.022 2.1101C139.58 2.1101 138.35 2.63739 137.33 3.69198C136.311 4.74657 135.802 6.01701 135.802 7.50331C135.802 8.9896 136.311 10.2631 137.33 11.3239C138.356 12.3785 139.577 12.9058 140.995 12.9058C142.412 12.9058 143.627 12.3785 144.64 11.3239C145.66 10.2693 146.169 8.99885 146.169 7.51256ZM139.873 8.28037V11.2961H137.946V3.71973H141.275C142.264 3.71973 142.994 3.92942 143.464 4.34879C143.935 4.76816 144.17 5.3232 144.17 6.01393C144.17 6.92051 143.733 7.57115 142.858 7.96585L144.288 11.2961H142.162L140.967 8.28037H139.873ZM139.873 5.10735V6.94826H140.877C141.384 6.94826 141.73 6.86809 141.917 6.70774C142.11 6.54122 142.207 6.30379 142.207 5.99543C142.207 5.79191 142.15 5.61306 142.035 5.45888C141.92 5.29853 141.794 5.19986 141.655 5.16286C141.516 5.12585 141.245 5.10735 140.841 5.10735H139.873Z" fill="black"/>
<path d="M149.068 14.875H156.276V18.2207H149.068V14.875Z" fill="black"/>
<path d="M175.335 11.3442L170.284 11.668C170.213 8.69748 169.082 7.21222 166.891 7.21222C164.378 7.21222 163.121 9.49922 163.121 14.0732C163.121 16.7148 163.463 18.5085 164.147 19.4541C164.83 20.3895 165.785 20.8571 167.012 20.8571C169.002 20.8571 170.218 19.5312 170.661 16.8793L175.335 17.1722C175.033 19.6905 174.114 21.6075 172.576 22.9231C171.048 24.2285 169.173 24.8812 166.951 24.8812C164.227 24.8812 162.011 23.9202 160.302 21.9981C158.603 20.076 157.754 17.4189 157.754 14.027C157.754 10.8509 158.578 8.25036 160.226 6.22546C161.875 4.20057 164.127 3.18812 166.982 3.18812C171.927 3.18812 174.712 5.90683 175.335 11.3442Z" fill="black"/>
<path d="M191.469 3.5119V7.67476H186.372V24.5575H181.487V7.67476H176.36V3.5119H191.469Z" fill="black"/>
<path d="M198.254 22.476V24.5575H193.519V3.5119H198.254V12.4852C198.254 14.027 198.209 15.5842 198.118 17.1568C198.902 15.3581 199.671 13.9088 200.425 12.8089L205.265 5.70125V3.5119H210V24.5575H205.265V14.9983C205.265 13.3948 205.311 12.0843 205.401 11.0667C204.748 12.6496 203.974 14.0938 203.079 15.3992L198.254 22.476Z" fill="black"/>
</svg>
