<svg xmlns="http://www.w3.org/2000/svg" viewBox="0 0 42 54"><title>i-eye</title><rect width="42" height="54" style="fill:#feee69"/><path d="M20.8,24l3.75,3.66v-.19a3.49,3.49,0,0,0-1-2.46A3.6,3.6,0,0,0,21,24Zm-5.08.92,1.83,1.8a3,3,0,0,0-.1.75,3.47,3.47,0,0,0,1,2.46,3.6,3.6,0,0,0,2.51,1,3.31,3.31,0,0,0,.77-.09l1.83,1.8a5.94,5.94,0,0,1-6.78-1.09,5.62,5.62,0,0,1-1.1-6.64Zm-6.54-6.4,2.7,2.64.53.52A13.78,13.78,0,0,0,8,27.42a14,14,0,0,0,13,8.69,14.12,14.12,0,0,0,5.18-1l.5.49L30.14,39l1.5-1.47L10.68,17M21,21.63a6,6,0,0,1,4.18,1.7,5.71,5.71,0,0,1,1.73,4.09,5.34,5.34,0,0,1-.43,2.11L30,32.92A13.76,13.76,0,0,0,34,27.42a14,14,0,0,0-13-8.68,14.33,14.33,0,0,0-4.73.81L18.84,22A5.93,5.93,0,0,1,21,21.63Z"/></svg>