<svg xmlns="http://www.w3.org/2000/svg" viewBox="0 0 210 30"><title>i-logo</title><path d="M8.46,22.6A9.62,9.62,0,0,1,2.14,20,8.24,8.24,0,0,1,0,14,8.22,8.22,0,0,1,2.13,8.11,9.66,9.66,0,0,1,8.46,5.45V2.88h4V5.45a9.62,9.62,0,0,1,6.34,2.66A8.29,8.29,0,0,1,20.88,14,8.31,8.31,0,0,1,18.76,20a9.71,9.71,0,0,1-6.34,2.64v2.59h-4ZM8.46,9a4.79,4.79,0,0,0-4,5.06,4.78,4.78,0,0,0,4,5Zm4,10.11a4.78,4.78,0,0,0,4-5c0-2.7-1.35-4.38-4-5.06Z"/><path d="M28.38,22.94v1.62h-4.5V9h4.5v5.93c0,1.05,0,2.22-.12,3.5.76-1.34,1.43-2.41,2-3.22l3-4.23V9h4.49V24.56H33.25V19c0-1.28,0-2.58.13-3.92a17.23,17.23,0,0,1-1.88,3.47Z"/><path d="M39.22,24.56,44.3,9h5l4.62,15.57H49.26l-3-11.41L42.6,24.56Z"/><path d="M55.52,24.56V9H60V14.5h3.5a5.29,5.29,0,0,1,4.09,1.44,5.09,5.09,0,0,1,1.31,3.59,4.72,4.72,0,0,1-1.46,3.81,6,6,0,0,1-3.94,1.22ZM60,21.46H62.7A2.35,2.35,0,0,0,64.28,21a2.12,2.12,0,0,0,.48-1.58,1.8,1.8,0,0,0-2.06-2H60Z"/><path d="M72.32,24.56V12.33H68.11V9H80.88v3.34H76.79V24.56Z"/><path d="M82.42,29.82V9h4.13v2.28a4,4,0,0,1,4-2.61,4.86,4.86,0,0,1,4,2,9.36,9.36,0,0,1,1.58,5.89q0,4.11-1.59,6.21a5,5,0,0,1-4.14,2.08,3.83,3.83,0,0,1-3.67-2.05v7Zm4.36-12.08A9,9,0,0,0,87,20a2.38,2.38,0,0,0,.83,1.15,2.23,2.23,0,0,0,1.37.49,2.07,2.07,0,0,0,1.65-1c.48-.64.72-2.06.72-4.25,0-3.08-.79-4.61-2.38-4.61a2.22,2.22,0,0,0-1.65.81,4.16,4.16,0,0,0-.73,2.78Z"/><path d="M110.64,9l-4.76,14.94a25.64,25.64,0,0,1-1.37,3.6,4.33,4.33,0,0,1-1.63,1.79,5.47,5.47,0,0,1-3,.68,14.68,14.68,0,0,1-2.15-.18V26.28a11.87,11.87,0,0,0,2.2.22,2.36,2.36,0,0,0,1.78-.51,3.35,3.35,0,0,0,.68-1.43L96.89,9h4.75l2.93,9.26L107.37,9Z"/><path d="M112.61,24.56V9h6.49l3.32,12.44L125.86,9H132V24.56h-4.1V12.13h-.21l-3.46,12.43h-4.46L116.3,12.13h-.21V24.56Z"/><path d="M141,14a6.07,6.07,0,0,1-4.52-1.93,6.4,6.4,0,0,1-1.85-4.59,6.4,6.4,0,0,1,1.86-4.59A6.06,6.06,0,0,1,141,1a6,6,0,0,1,4.52,1.94,6.43,6.43,0,0,1,1.84,4.57,6.45,6.45,0,0,1-1.83,4.56A6,6,0,0,1,141,14Zm5.18-6.52a5.32,5.32,0,0,0-1.51-3.81A4.81,4.81,0,0,0,141,2.11a5,5,0,0,0-3.69,1.58A5.3,5.3,0,0,0,135.8,7.5a5.31,5.31,0,0,0,1.53,3.82A4.93,4.93,0,0,0,141,12.91a4.87,4.87,0,0,0,3.65-1.59A5.27,5.27,0,0,0,146.17,7.51Zm-6.3.77v3H138V3.72h3.32a3.22,3.22,0,0,1,2.19.63A2.12,2.12,0,0,1,144.17,6a2,2,0,0,1-1.31,2l1.43,3.33h-2.13l-1.19-3Zm0-3.17V7h1a1.67,1.67,0,0,0,1-.24.91.91,0,0,0,.29-.71.89.89,0,0,0-.17-.54.77.77,0,0,0-.39-.3,4.43,4.43,0,0,0-.81,0Z"/><path d="M149.07,14.88h7.21v3.34h-7.21Z"/><path d="M175.34,11.34l-5.06.33q-.1-4.46-3.39-4.46-3.76,0-3.77,6.86c0,2.64.34,4.44,1,5.38A3.33,3.33,0,0,0,167,20.86q3,0,3.65-4l4.68.29a8.62,8.62,0,0,1-2.76,5.75,8.36,8.36,0,0,1-5.63,2A8.5,8.5,0,0,1,160.3,22q-2.55-2.88-2.55-8a11.93,11.93,0,0,1,2.48-7.8,8.23,8.23,0,0,1,6.75-3Q174.41,3.19,175.34,11.34Z"/><path d="M191.47,3.51V7.67h-5.1V24.56h-4.88V7.67h-5.13V3.51Z"/><path d="M198.25,22.48v2.08h-4.73v-21h4.73v9c0,1.54,0,3.09-.13,4.67a25.85,25.85,0,0,1,2.31-4.35l4.83-7.11V3.51H210v21h-4.74V15c0-1.61.05-2.92.14-3.93a23.78,23.78,0,0,1-2.32,4.33Z"/></svg>